<mxfile host="app.diagrams.net" modified="2021-08-30T09:36:57.074Z" agent="5.0 (Windows NT 10.0; Win64; x64) AppleWebKit/537.36 (KHTML, like Gecko) Chrome/92.0.4515.159 Safari/537.36" etag="xyOZoeOPwE-imW4sGwFK" version="15.0.2" type="github">
  <diagram id="C5RBs43oDa-KdzZeNtuy" name="Page-1">
    <mxGraphModel dx="1188" dy="931" grid="1" gridSize="10" guides="1" tooltips="1" connect="1" arrows="1" fold="1" page="1" pageScale="1" pageWidth="827" pageHeight="1169" math="0" shadow="0">
      <root>
        <mxCell id="WIyWlLk6GJQsqaUBKTNV-0" />
        <mxCell id="WIyWlLk6GJQsqaUBKTNV-1" parent="WIyWlLk6GJQsqaUBKTNV-0" />
        <mxCell id="_kvK4HXNGiyiGMj-qL1b-0" value="Strategy Pattern &lt;br&gt;(Sorting Example)" style="text;html=1;strokeColor=#d6b656;fillColor=#fff2cc;align=center;verticalAlign=middle;whiteSpace=wrap;rounded=0;fontSize=18;fontStyle=1" parent="WIyWlLk6GJQsqaUBKTNV-1" vertex="1">
          <mxGeometry x="370" y="470" width="280" height="40" as="geometry" />
        </mxCell>
        <mxCell id="_kvK4HXNGiyiGMj-qL1b-38" value="" style="endArrow=diamondThin;endFill=0;endSize=24;html=1;exitX=-0.002;exitY=0.461;exitDx=0;exitDy=0;exitPerimeter=0;" parent="WIyWlLk6GJQsqaUBKTNV-1" source="_kvK4HXNGiyiGMj-qL1b-55" target="_kvK4HXNGiyiGMj-qL1b-63" edge="1">
          <mxGeometry width="160" relative="1" as="geometry">
            <mxPoint x="570" y="618.9999999999999" as="sourcePoint" />
            <mxPoint x="350" y="619" as="targetPoint" />
          </mxGeometry>
        </mxCell>
        <mxCell id="_kvK4HXNGiyiGMj-qL1b-40" value="QuickSort" style="swimlane;fontStyle=1;align=center;verticalAlign=top;childLayout=stackLayout;horizontal=1;startSize=26;horizontalStack=0;resizeParent=1;resizeParentMax=0;resizeLast=0;collapsible=1;marginBottom=0;" parent="WIyWlLk6GJQsqaUBKTNV-1" vertex="1">
          <mxGeometry x="390" y="750" width="160" height="120" as="geometry" />
        </mxCell>
        <object label="+ field: type" jilhjkl="hjklj" id="_kvK4HXNGiyiGMj-qL1b-41">
          <mxCell style="text;strokeColor=none;fillColor=none;align=left;verticalAlign=top;spacingLeft=4;spacingRight=4;overflow=hidden;rotatable=0;points=[[0,0.5],[1,0.5]];portConstraint=eastwest;" parent="_kvK4HXNGiyiGMj-qL1b-40" vertex="1">
            <mxGeometry y="26" width="160" height="26" as="geometry" />
          </mxCell>
        </object>
        <mxCell id="_kvK4HXNGiyiGMj-qL1b-42" value="" style="line;strokeWidth=1;fillColor=none;align=left;verticalAlign=middle;spacingTop=-1;spacingLeft=3;spacingRight=3;rotatable=0;labelPosition=right;points=[];portConstraint=eastwest;" parent="_kvK4HXNGiyiGMj-qL1b-40" vertex="1">
          <mxGeometry y="52" width="160" height="8" as="geometry" />
        </mxCell>
        <mxCell id="_kvK4HXNGiyiGMj-qL1b-43" value="+ sort(ArrayList list){&#xa;  // impl. of quick sort&#xa;}" style="text;strokeColor=none;fillColor=none;align=left;verticalAlign=top;spacingLeft=4;spacingRight=4;overflow=hidden;rotatable=0;points=[[0,0.5],[1,0.5]];portConstraint=eastwest;" parent="_kvK4HXNGiyiGMj-qL1b-40" vertex="1">
          <mxGeometry y="60" width="160" height="60" as="geometry" />
        </mxCell>
        <mxCell id="_kvK4HXNGiyiGMj-qL1b-44" value="HashSort" style="swimlane;fontStyle=1;align=center;verticalAlign=top;childLayout=stackLayout;horizontal=1;startSize=26;horizontalStack=0;resizeParent=1;resizeParentMax=0;resizeLast=0;collapsible=1;marginBottom=0;" parent="WIyWlLk6GJQsqaUBKTNV-1" vertex="1">
          <mxGeometry x="560" y="750" width="160" height="120" as="geometry" />
        </mxCell>
        <mxCell id="_kvK4HXNGiyiGMj-qL1b-45" value="+ field: type" style="text;strokeColor=none;fillColor=none;align=left;verticalAlign=top;spacingLeft=4;spacingRight=4;overflow=hidden;rotatable=0;points=[[0,0.5],[1,0.5]];portConstraint=eastwest;" parent="_kvK4HXNGiyiGMj-qL1b-44" vertex="1">
          <mxGeometry y="26" width="160" height="26" as="geometry" />
        </mxCell>
        <mxCell id="_kvK4HXNGiyiGMj-qL1b-46" value="" style="line;strokeWidth=1;fillColor=none;align=left;verticalAlign=middle;spacingTop=-1;spacingLeft=3;spacingRight=3;rotatable=0;labelPosition=right;points=[];portConstraint=eastwest;" parent="_kvK4HXNGiyiGMj-qL1b-44" vertex="1">
          <mxGeometry y="52" width="160" height="8" as="geometry" />
        </mxCell>
        <mxCell id="_kvK4HXNGiyiGMj-qL1b-47" value="+ sort(ArrayList list){&#xa;  // impl. of hash sort&#xa;}" style="text;strokeColor=none;fillColor=none;align=left;verticalAlign=top;spacingLeft=4;spacingRight=4;overflow=hidden;rotatable=0;points=[[0,0.5],[1,0.5]];portConstraint=eastwest;" parent="_kvK4HXNGiyiGMj-qL1b-44" vertex="1">
          <mxGeometry y="60" width="160" height="60" as="geometry" />
        </mxCell>
        <mxCell id="_kvK4HXNGiyiGMj-qL1b-48" value="ConcreteStrategyC" style="swimlane;fontStyle=1;align=center;verticalAlign=top;childLayout=stackLayout;horizontal=1;startSize=26;horizontalStack=0;resizeParent=1;resizeParentMax=0;resizeLast=0;collapsible=1;marginBottom=0;" parent="WIyWlLk6GJQsqaUBKTNV-1" vertex="1">
          <mxGeometry x="730" y="750" width="160" height="120" as="geometry" />
        </mxCell>
        <mxCell id="_kvK4HXNGiyiGMj-qL1b-49" value="+ field: type" style="text;strokeColor=none;fillColor=none;align=left;verticalAlign=top;spacingLeft=4;spacingRight=4;overflow=hidden;rotatable=0;points=[[0,0.5],[1,0.5]];portConstraint=eastwest;" parent="_kvK4HXNGiyiGMj-qL1b-48" vertex="1">
          <mxGeometry y="26" width="160" height="26" as="geometry" />
        </mxCell>
        <mxCell id="_kvK4HXNGiyiGMj-qL1b-50" value="" style="line;strokeWidth=1;fillColor=none;align=left;verticalAlign=middle;spacingTop=-1;spacingLeft=3;spacingRight=3;rotatable=0;labelPosition=right;points=[];portConstraint=eastwest;" parent="_kvK4HXNGiyiGMj-qL1b-48" vertex="1">
          <mxGeometry y="52" width="160" height="8" as="geometry" />
        </mxCell>
        <mxCell id="_kvK4HXNGiyiGMj-qL1b-51" value="+ sort(ArrayList list){&#xa;  // impl. of merge sort&#xa;}" style="text;strokeColor=none;fillColor=none;align=left;verticalAlign=top;spacingLeft=4;spacingRight=4;overflow=hidden;rotatable=0;points=[[0,0.5],[1,0.5]];portConstraint=eastwest;" parent="_kvK4HXNGiyiGMj-qL1b-48" vertex="1">
          <mxGeometry y="60" width="160" height="60" as="geometry" />
        </mxCell>
        <mxCell id="_kvK4HXNGiyiGMj-qL1b-55" value="&lt;p style=&quot;margin: 0px ; margin-top: 4px ; text-align: center&quot;&gt;&lt;i&gt;&amp;lt;&amp;lt;Interface&amp;gt;&amp;gt;&lt;/i&gt;&lt;br&gt;&lt;b&gt;Strategy&lt;/b&gt;&lt;/p&gt;&lt;hr size=&quot;1&quot;&gt;&lt;p style=&quot;margin: 0px ; margin-left: 4px&quot;&gt;&lt;span style=&quot;color: rgba(0 , 0 , 0 , 0) ; font-family: monospace ; font-size: 0px&quot;&gt;%3CmxGraphModel%3E%3Croot%3E%3CmxCell%20id%3D%220%22%2F%3E%3CmxCell%20id%3D%221%22%20parent%3D%220%22%2F%3E%3CmxCell%20id%3D%222%22%20value%3D%22%22%20style%3D%22endArrow%3Dblock%3Bdashed%3D1%3BendFill%3D0%3BendSize%3D12%3Bhtml%3D1%3BentryX%3D0.5%3BentryY%3D1%3BentryDx%3D0%3BentryDy%3D0%3BexitX%3D0.5%3BexitY%3D0%3BexitDx%3D0%3BexitDy%3D0%3B%22%20edge%3D%221%22%20parent%3D%221%22%3E%3CmxGeometry%20width%3D%22160%22%20relative%3D%221%22%20as%3D%22geometry%22%3E%3CmxPoint%20x%3D%22610%22%20y%3D%22380%22%20as%3D%22sourcePoint%22%2F%3E%3CmxPoint%20x%3D%22635%22%20y%3D%22320%22%20as%3D%22targetPoint%22%2F%3E%3C%2FmxGeometry%3E%3C%2FmxCell%3E%3C%2Froot%3E%3C%2FmxGraphModel%3&lt;/span&gt;&lt;br&gt;&lt;/p&gt;&lt;hr size=&quot;1&quot;&gt;&lt;p style=&quot;margin: 0px ; margin-left: 4px&quot;&gt;+ sort(ArrayList list)&lt;/p&gt;" style="verticalAlign=top;align=left;overflow=fill;fontSize=12;fontFamily=Helvetica;html=1;" parent="WIyWlLk6GJQsqaUBKTNV-1" vertex="1">
          <mxGeometry x="570" y="580" width="190" height="100" as="geometry" />
        </mxCell>
        <mxCell id="_kvK4HXNGiyiGMj-qL1b-57" value="" style="endArrow=block;dashed=1;endFill=0;endSize=12;html=1;entryX=0.25;entryY=1;entryDx=0;entryDy=0;exitX=0.5;exitY=0;exitDx=0;exitDy=0;" parent="WIyWlLk6GJQsqaUBKTNV-1" source="_kvK4HXNGiyiGMj-qL1b-40" target="_kvK4HXNGiyiGMj-qL1b-55" edge="1">
          <mxGeometry width="160" relative="1" as="geometry">
            <mxPoint x="440" y="740" as="sourcePoint" />
            <mxPoint x="600" y="740" as="targetPoint" />
          </mxGeometry>
        </mxCell>
        <mxCell id="_kvK4HXNGiyiGMj-qL1b-58" value="" style="endArrow=block;dashed=1;endFill=0;endSize=12;html=1;entryX=0.458;entryY=0.993;entryDx=0;entryDy=0;exitX=0.5;exitY=0;exitDx=0;exitDy=0;entryPerimeter=0;" parent="WIyWlLk6GJQsqaUBKTNV-1" source="_kvK4HXNGiyiGMj-qL1b-44" target="_kvK4HXNGiyiGMj-qL1b-55" edge="1">
          <mxGeometry width="160" relative="1" as="geometry">
            <mxPoint x="480" y="760" as="sourcePoint" />
            <mxPoint x="675" y="700" as="targetPoint" />
          </mxGeometry>
        </mxCell>
        <mxCell id="_kvK4HXNGiyiGMj-qL1b-59" value="" style="endArrow=block;dashed=1;endFill=0;endSize=12;html=1;exitX=0.5;exitY=0;exitDx=0;exitDy=0;entryX=0.75;entryY=1;entryDx=0;entryDy=0;" parent="WIyWlLk6GJQsqaUBKTNV-1" source="_kvK4HXNGiyiGMj-qL1b-48" target="_kvK4HXNGiyiGMj-qL1b-55" edge="1">
          <mxGeometry width="160" relative="1" as="geometry">
            <mxPoint x="650" y="760" as="sourcePoint" />
            <mxPoint x="660" y="690" as="targetPoint" />
          </mxGeometry>
        </mxCell>
        <mxCell id="_kvK4HXNGiyiGMj-qL1b-63" value="&lt;p style=&quot;margin: 0px ; margin-top: 4px ; text-align: center&quot;&gt;&lt;b&gt;SortedList&lt;/b&gt;&lt;/p&gt;&lt;hr size=&quot;1&quot;&gt;&lt;p style=&quot;margin: 0px ; margin-left: 4px&quot;&gt;- list: ArrayList&lt;/p&gt;&lt;hr size=&quot;1&quot;&gt;&lt;p style=&quot;margin: 0px ; margin-left: 4px&quot;&gt;+ setSortAlog(SortStrategy s)&lt;/p&gt;&lt;p style=&quot;margin: 0px ; margin-left: 4px&quot;&gt;+ sort() {&lt;/p&gt;&lt;p style=&quot;margin: 0px ; margin-left: 4px&quot;&gt;&lt;span style=&quot;white-space: pre&quot;&gt; &lt;/span&gt;sortStr.sort(list)&lt;br&gt;&lt;/p&gt;&lt;p style=&quot;margin: 0px ; margin-left: 4px&quot;&gt;}&lt;/p&gt;" style="verticalAlign=top;align=left;overflow=fill;fontSize=12;fontFamily=Helvetica;html=1;startSize=26;" parent="WIyWlLk6GJQsqaUBKTNV-1" vertex="1">
          <mxGeometry x="200" y="570" width="170" height="120" as="geometry" />
        </mxCell>
        <mxCell id="_kvK4HXNGiyiGMj-qL1b-65" value="Strategy Pattern" style="text;html=1;strokeColor=#d6b656;fillColor=#fff2cc;align=center;verticalAlign=middle;whiteSpace=wrap;rounded=0;fontSize=18;fontStyle=1" parent="WIyWlLk6GJQsqaUBKTNV-1" vertex="1">
          <mxGeometry x="370" y="60" width="280" height="40" as="geometry" />
        </mxCell>
        <mxCell id="_kvK4HXNGiyiGMj-qL1b-66" value="Context" style="swimlane;fontStyle=1;align=center;verticalAlign=top;childLayout=stackLayout;horizontal=1;startSize=26;horizontalStack=0;resizeParent=1;resizeParentMax=0;resizeLast=0;collapsible=1;marginBottom=0;" parent="WIyWlLk6GJQsqaUBKTNV-1" vertex="1">
          <mxGeometry x="200" y="140" width="160" height="60" as="geometry" />
        </mxCell>
        <mxCell id="_kvK4HXNGiyiGMj-qL1b-68" value="" style="line;strokeWidth=1;fillColor=none;align=left;verticalAlign=middle;spacingTop=-1;spacingLeft=3;spacingRight=3;rotatable=0;labelPosition=right;points=[];portConstraint=eastwest;" parent="_kvK4HXNGiyiGMj-qL1b-66" vertex="1">
          <mxGeometry y="26" width="160" height="8" as="geometry" />
        </mxCell>
        <mxCell id="_kvK4HXNGiyiGMj-qL1b-69" value="+ ContextInterface()" style="text;strokeColor=none;fillColor=none;align=left;verticalAlign=top;spacingLeft=4;spacingRight=4;overflow=hidden;rotatable=0;points=[[0,0.5],[1,0.5]];portConstraint=eastwest;" parent="_kvK4HXNGiyiGMj-qL1b-66" vertex="1">
          <mxGeometry y="34" width="160" height="26" as="geometry" />
        </mxCell>
        <mxCell id="_kvK4HXNGiyiGMj-qL1b-70" value="Strategy" style="swimlane;fontStyle=1;align=center;verticalAlign=top;childLayout=stackLayout;horizontal=1;startSize=26;horizontalStack=0;resizeParent=1;resizeParentMax=0;resizeLast=0;collapsible=1;marginBottom=0;" parent="WIyWlLk6GJQsqaUBKTNV-1" vertex="1">
          <mxGeometry x="630" y="140" width="160" height="60" as="geometry" />
        </mxCell>
        <mxCell id="_kvK4HXNGiyiGMj-qL1b-72" value="" style="line;strokeWidth=1;fillColor=none;align=left;verticalAlign=middle;spacingTop=-1;spacingLeft=3;spacingRight=3;rotatable=0;labelPosition=right;points=[];portConstraint=eastwest;" parent="_kvK4HXNGiyiGMj-qL1b-70" vertex="1">
          <mxGeometry y="26" width="160" height="8" as="geometry" />
        </mxCell>
        <mxCell id="_kvK4HXNGiyiGMj-qL1b-73" value="+ AlgorithmInterface()" style="text;strokeColor=none;fillColor=none;align=left;verticalAlign=top;spacingLeft=4;spacingRight=4;overflow=hidden;rotatable=0;points=[[0,0.5],[1,0.5]];portConstraint=eastwest;" parent="_kvK4HXNGiyiGMj-qL1b-70" vertex="1">
          <mxGeometry y="34" width="160" height="26" as="geometry" />
        </mxCell>
        <mxCell id="_kvK4HXNGiyiGMj-qL1b-74" value="ConcreteStrategyA" style="swimlane;fontStyle=1;align=center;verticalAlign=top;childLayout=stackLayout;horizontal=1;startSize=26;horizontalStack=0;resizeParent=1;resizeParentMax=0;resizeLast=0;collapsible=1;marginBottom=0;" parent="WIyWlLk6GJQsqaUBKTNV-1" vertex="1">
          <mxGeometry x="470" y="310" width="160" height="60" as="geometry" />
        </mxCell>
        <mxCell id="_kvK4HXNGiyiGMj-qL1b-76" value="" style="line;strokeWidth=1;fillColor=none;align=left;verticalAlign=middle;spacingTop=-1;spacingLeft=3;spacingRight=3;rotatable=0;labelPosition=right;points=[];portConstraint=eastwest;" parent="_kvK4HXNGiyiGMj-qL1b-74" vertex="1">
          <mxGeometry y="26" width="160" height="8" as="geometry" />
        </mxCell>
        <mxCell id="_kvK4HXNGiyiGMj-qL1b-77" value="+ AlgorithmInterface()" style="text;strokeColor=none;fillColor=none;align=left;verticalAlign=top;spacingLeft=4;spacingRight=4;overflow=hidden;rotatable=0;points=[[0,0.5],[1,0.5]];portConstraint=eastwest;" parent="_kvK4HXNGiyiGMj-qL1b-74" vertex="1">
          <mxGeometry y="34" width="160" height="26" as="geometry" />
        </mxCell>
        <mxCell id="_kvK4HXNGiyiGMj-qL1b-78" value="ConcreteStrategyB" style="swimlane;fontStyle=1;align=center;verticalAlign=top;childLayout=stackLayout;horizontal=1;startSize=26;horizontalStack=0;resizeParent=1;resizeParentMax=0;resizeLast=0;collapsible=1;marginBottom=0;" parent="WIyWlLk6GJQsqaUBKTNV-1" vertex="1">
          <mxGeometry x="669" y="310" width="160" height="60" as="geometry" />
        </mxCell>
        <mxCell id="_kvK4HXNGiyiGMj-qL1b-80" value="" style="line;strokeWidth=1;fillColor=none;align=left;verticalAlign=middle;spacingTop=-1;spacingLeft=3;spacingRight=3;rotatable=0;labelPosition=right;points=[];portConstraint=eastwest;" parent="_kvK4HXNGiyiGMj-qL1b-78" vertex="1">
          <mxGeometry y="26" width="160" height="8" as="geometry" />
        </mxCell>
        <mxCell id="_kvK4HXNGiyiGMj-qL1b-81" value="+ AlgorithmInterface()" style="text;strokeColor=none;fillColor=none;align=left;verticalAlign=top;spacingLeft=4;spacingRight=4;overflow=hidden;rotatable=0;points=[[0,0.5],[1,0.5]];portConstraint=eastwest;" parent="_kvK4HXNGiyiGMj-qL1b-78" vertex="1">
          <mxGeometry y="34" width="160" height="26" as="geometry" />
        </mxCell>
        <mxCell id="_kvK4HXNGiyiGMj-qL1b-82" value="ConcreteStrategyC" style="swimlane;fontStyle=1;align=center;verticalAlign=top;childLayout=stackLayout;horizontal=1;startSize=26;horizontalStack=0;resizeParent=1;resizeParentMax=0;resizeLast=0;collapsible=1;marginBottom=0;" parent="WIyWlLk6GJQsqaUBKTNV-1" vertex="1">
          <mxGeometry x="860" y="310" width="160" height="60" as="geometry" />
        </mxCell>
        <mxCell id="_kvK4HXNGiyiGMj-qL1b-84" value="" style="line;strokeWidth=1;fillColor=none;align=left;verticalAlign=middle;spacingTop=-1;spacingLeft=3;spacingRight=3;rotatable=0;labelPosition=right;points=[];portConstraint=eastwest;" parent="_kvK4HXNGiyiGMj-qL1b-82" vertex="1">
          <mxGeometry y="26" width="160" height="8" as="geometry" />
        </mxCell>
        <mxCell id="_kvK4HXNGiyiGMj-qL1b-85" value="+ AlgorithmInterface()" style="text;strokeColor=none;fillColor=none;align=left;verticalAlign=top;spacingLeft=4;spacingRight=4;overflow=hidden;rotatable=0;points=[[0,0.5],[1,0.5]];portConstraint=eastwest;" parent="_kvK4HXNGiyiGMj-qL1b-82" vertex="1">
          <mxGeometry y="34" width="160" height="26" as="geometry" />
        </mxCell>
        <mxCell id="zN96rJiQlAPzqAvAHpJL-0" value="" style="endArrow=diamondThin;endFill=0;endSize=24;html=1;entryX=1.006;entryY=0.885;entryDx=0;entryDy=0;entryPerimeter=0;exitX=-0.019;exitY=0.846;exitDx=0;exitDy=0;exitPerimeter=0;" parent="WIyWlLk6GJQsqaUBKTNV-1" edge="1">
          <mxGeometry width="160" relative="1" as="geometry">
            <mxPoint x="626.96" y="187.9960000000001" as="sourcePoint" />
            <mxPoint x="360.96000000000004" y="189.01" as="targetPoint" />
          </mxGeometry>
        </mxCell>
        <mxCell id="zN96rJiQlAPzqAvAHpJL-3" value="" style="endArrow=block;endSize=16;endFill=0;html=1;exitX=0.5;exitY=0;exitDx=0;exitDy=0;edgeStyle=elbowEdgeStyle;elbow=vertical;rounded=0;entryX=0.2;entryY=1.038;entryDx=0;entryDy=0;entryPerimeter=0;" parent="WIyWlLk6GJQsqaUBKTNV-1" source="_kvK4HXNGiyiGMj-qL1b-74" target="_kvK4HXNGiyiGMj-qL1b-73" edge="1">
          <mxGeometry width="160" relative="1" as="geometry">
            <mxPoint x="690" y="570" as="sourcePoint" />
            <mxPoint x="666" y="230" as="targetPoint" />
          </mxGeometry>
        </mxCell>
        <mxCell id="zN96rJiQlAPzqAvAHpJL-8" value="" style="endArrow=block;endSize=16;endFill=0;html=1;exitX=0.5;exitY=0;exitDx=0;exitDy=0;edgeStyle=elbowEdgeStyle;elbow=vertical;rounded=0;entryX=0.769;entryY=1.077;entryDx=0;entryDy=0;entryPerimeter=0;" parent="WIyWlLk6GJQsqaUBKTNV-1" source="_kvK4HXNGiyiGMj-qL1b-82" target="_kvK4HXNGiyiGMj-qL1b-73" edge="1">
          <mxGeometry width="160" relative="1" as="geometry">
            <mxPoint x="560" y="320" as="sourcePoint" />
            <mxPoint x="672" y="236.98800000000006" as="targetPoint" />
          </mxGeometry>
        </mxCell>
        <mxCell id="zN96rJiQlAPzqAvAHpJL-9" value="" style="endArrow=block;endSize=16;endFill=0;html=1;edgeStyle=elbowEdgeStyle;elbow=vertical;rounded=0;entryX=0.45;entryY=1;entryDx=0;entryDy=0;entryPerimeter=0;" parent="WIyWlLk6GJQsqaUBKTNV-1" source="_kvK4HXNGiyiGMj-qL1b-78" target="_kvK4HXNGiyiGMj-qL1b-73" edge="1">
          <mxGeometry width="160" relative="1" as="geometry">
            <mxPoint x="570" y="330" as="sourcePoint" />
            <mxPoint x="682" y="246.98800000000006" as="targetPoint" />
          </mxGeometry>
        </mxCell>
        <mxCell id="hUJC9Ihexo7JorO5PDd7-0" value="Strategy Pattern &lt;br&gt;(Duck)" style="text;html=1;strokeColor=#d6b656;fillColor=#fff2cc;align=center;verticalAlign=middle;whiteSpace=wrap;rounded=0;fontSize=18;fontStyle=1" vertex="1" parent="WIyWlLk6GJQsqaUBKTNV-1">
          <mxGeometry x="370" y="970" width="280" height="40" as="geometry" />
        </mxCell>
        <mxCell id="hUJC9Ihexo7JorO5PDd7-2" value="&lt;p style=&quot;margin: 0px ; margin-top: 4px ; text-align: center&quot;&gt;&lt;b&gt;{abstract}&lt;/b&gt;&lt;/p&gt;&lt;p style=&quot;margin: 0px ; margin-top: 4px ; text-align: center&quot;&gt;&lt;b&gt;Duck&lt;/b&gt;&lt;/p&gt;&lt;hr size=&quot;1&quot;&gt;&lt;p style=&quot;margin: 0px ; margin-left: 4px&quot;&gt;+ performFly()&lt;/p&gt;&lt;p style=&quot;margin: 0px ; margin-left: 4px&quot;&gt;{ flyBehavior.fly() }&lt;/p&gt;&lt;p style=&quot;margin: 0px ; margin-left: 4px&quot;&gt;+ performQuack()&lt;/p&gt;&lt;p style=&quot;margin: 0px ; margin-left: 4px&quot;&gt;{ quackBehavior.quack() }&lt;br&gt;&lt;/p&gt;&lt;p style=&quot;margin: 0px ; margin-left: 4px&quot;&gt;+ swim() { // swimming Impl }&lt;/p&gt;&lt;p style=&quot;margin: 0px ; margin-left: 4px&quot;&gt;+display() //abstract&lt;/p&gt;&lt;p style=&quot;margin: 0px ; margin-left: 4px&quot;&gt;+ setFlyBehavior (FlyBehavior)&lt;/p&gt;&lt;p style=&quot;margin: 0px ; margin-left: 4px&quot;&gt;+ setQuackBehavior(QuackBehavior)&lt;/p&gt;&lt;p style=&quot;margin: 0px ; margin-left: 4px&quot;&gt;&amp;nbsp;//other duck method&lt;/p&gt;" style="verticalAlign=top;align=left;overflow=fill;fontSize=12;fontFamily=Helvetica;html=1;" vertex="1" parent="WIyWlLk6GJQsqaUBKTNV-1">
          <mxGeometry x="170" y="1200" width="210" height="190" as="geometry" />
        </mxCell>
        <mxCell id="hUJC9Ihexo7JorO5PDd7-3" value="&lt;p style=&quot;margin: 0px ; margin-top: 4px ; text-align: center&quot;&gt;&lt;b&gt;MallardDuck&lt;/b&gt;&lt;/p&gt;&lt;hr size=&quot;1&quot;&gt;&lt;p style=&quot;margin: 0px ; margin-left: 4px&quot;&gt;+display() {&lt;/p&gt;&lt;p style=&quot;margin: 0px ; margin-left: 4px&quot;&gt;&amp;nbsp;showing mallard duck }&lt;/p&gt;" style="verticalAlign=top;align=left;overflow=fill;fontSize=12;fontFamily=Helvetica;html=1;" vertex="1" parent="WIyWlLk6GJQsqaUBKTNV-1">
          <mxGeometry x="60" y="1470" width="150" height="70" as="geometry" />
        </mxCell>
        <mxCell id="hUJC9Ihexo7JorO5PDd7-4" value="&lt;p style=&quot;margin: 0px ; margin-top: 4px ; text-align: center&quot;&gt;&lt;b&gt;RedheadDuck&lt;/b&gt;&lt;/p&gt;&lt;hr size=&quot;1&quot;&gt;&lt;p style=&quot;margin: 0px ; margin-left: 4px&quot;&gt;+display() {&lt;/p&gt;&lt;p style=&quot;margin: 0px ; margin-left: 4px&quot;&gt;&amp;nbsp;showing redheadduck }&lt;/p&gt;" style="verticalAlign=top;align=left;overflow=fill;fontSize=12;fontFamily=Helvetica;html=1;" vertex="1" parent="WIyWlLk6GJQsqaUBKTNV-1">
          <mxGeometry x="250" y="1470" width="150" height="70" as="geometry" />
        </mxCell>
        <mxCell id="hUJC9Ihexo7JorO5PDd7-7" value="" style="endArrow=block;endSize=16;endFill=0;html=1;exitX=0.5;exitY=0;exitDx=0;exitDy=0;elbow=vertical;rounded=0;entryX=0.2;entryY=1.011;entryDx=0;entryDy=0;entryPerimeter=0;" edge="1" parent="WIyWlLk6GJQsqaUBKTNV-1" source="hUJC9Ihexo7JorO5PDd7-3" target="hUJC9Ihexo7JorO5PDd7-2">
          <mxGeometry width="160" relative="1" as="geometry">
            <mxPoint x="120" y="1479.01" as="sourcePoint" />
            <mxPoint x="210" y="1400" as="targetPoint" />
          </mxGeometry>
        </mxCell>
        <mxCell id="hUJC9Ihexo7JorO5PDd7-8" value="" style="endArrow=block;endSize=16;endFill=0;html=1;elbow=vertical;rounded=0;entryX=0.543;entryY=1.005;entryDx=0;entryDy=0;entryPerimeter=0;" edge="1" parent="WIyWlLk6GJQsqaUBKTNV-1" source="hUJC9Ihexo7JorO5PDd7-4" target="hUJC9Ihexo7JorO5PDd7-2">
          <mxGeometry width="160" relative="1" as="geometry">
            <mxPoint x="145" y="1480" as="sourcePoint" />
            <mxPoint x="222" y="1402.0900000000001" as="targetPoint" />
          </mxGeometry>
        </mxCell>
        <mxCell id="hUJC9Ihexo7JorO5PDd7-9" value="" style="endArrow=block;endSize=16;endFill=0;html=1;elbow=vertical;rounded=0;exitX=0.508;exitY=0.05;exitDx=0;exitDy=0;exitPerimeter=0;entryX=0.795;entryY=1;entryDx=0;entryDy=0;entryPerimeter=0;" edge="1" parent="WIyWlLk6GJQsqaUBKTNV-1" source="hUJC9Ihexo7JorO5PDd7-10" target="hUJC9Ihexo7JorO5PDd7-2">
          <mxGeometry width="160" relative="1" as="geometry">
            <mxPoint x="508.3970056992548" y="1568.05" as="sourcePoint" />
            <mxPoint x="370" y="1420" as="targetPoint" />
          </mxGeometry>
        </mxCell>
        <mxCell id="hUJC9Ihexo7JorO5PDd7-10" value="Other types of duck" style="text;html=1;align=center;verticalAlign=middle;resizable=0;points=[];autosize=1;strokeColor=none;" vertex="1" parent="WIyWlLk6GJQsqaUBKTNV-1">
          <mxGeometry x="410" y="1500" width="120" height="20" as="geometry" />
        </mxCell>
        <mxCell id="hUJC9Ihexo7JorO5PDd7-11" value="FlyWithWings" style="swimlane;fontStyle=1;align=center;verticalAlign=top;childLayout=stackLayout;horizontal=1;startSize=26;horizontalStack=0;resizeParent=1;resizeParentMax=0;resizeLast=0;collapsible=1;marginBottom=0;" vertex="1" parent="WIyWlLk6GJQsqaUBKTNV-1">
          <mxGeometry x="650" y="1280" width="160" height="86" as="geometry" />
        </mxCell>
        <mxCell id="hUJC9Ihexo7JorO5PDd7-14" value="+ fly() {&#xa;// impl of duck flying&#xa;}" style="text;strokeColor=none;fillColor=none;align=left;verticalAlign=top;spacingLeft=4;spacingRight=4;overflow=hidden;rotatable=0;points=[[0,0.5],[1,0.5]];portConstraint=eastwest;" vertex="1" parent="hUJC9Ihexo7JorO5PDd7-11">
          <mxGeometry y="26" width="160" height="60" as="geometry" />
        </mxCell>
        <mxCell id="hUJC9Ihexo7JorO5PDd7-15" value="FlyNpoWay" style="swimlane;fontStyle=1;align=center;verticalAlign=top;childLayout=stackLayout;horizontal=1;startSize=26;horizontalStack=0;resizeParent=1;resizeParentMax=0;resizeLast=0;collapsible=1;marginBottom=0;" vertex="1" parent="WIyWlLk6GJQsqaUBKTNV-1">
          <mxGeometry x="820" y="1280" width="160" height="86" as="geometry" />
        </mxCell>
        <mxCell id="hUJC9Ihexo7JorO5PDd7-18" value="+ fly() {&#xa;// do nothing. can&#39;t fly&#xa;}" style="text;strokeColor=none;fillColor=none;align=left;verticalAlign=top;spacingLeft=4;spacingRight=4;overflow=hidden;rotatable=0;points=[[0,0.5],[1,0.5]];portConstraint=eastwest;" vertex="1" parent="hUJC9Ihexo7JorO5PDd7-15">
          <mxGeometry y="26" width="160" height="60" as="geometry" />
        </mxCell>
        <mxCell id="hUJC9Ihexo7JorO5PDd7-23" value="&lt;p style=&quot;margin: 0px ; margin-top: 4px ; text-align: center&quot;&gt;&lt;i&gt;&amp;lt;&amp;lt;Interface&amp;gt;&amp;gt;&lt;/i&gt;&lt;br&gt;&lt;b&gt;FlyBehavior&lt;/b&gt;&lt;/p&gt;&lt;hr size=&quot;1&quot;&gt;&lt;p style=&quot;margin: 0px ; margin-left: 4px&quot;&gt;&lt;/p&gt;&lt;p style=&quot;margin: 0px ; margin-left: 4px&quot;&gt;+ fly()&lt;/p&gt;" style="verticalAlign=top;align=left;overflow=fill;fontSize=12;fontFamily=Helvetica;html=1;" vertex="1" parent="WIyWlLk6GJQsqaUBKTNV-1">
          <mxGeometry x="830" y="1110" width="190" height="80" as="geometry" />
        </mxCell>
        <mxCell id="hUJC9Ihexo7JorO5PDd7-24" value="" style="endArrow=block;dashed=1;endFill=0;endSize=12;html=1;entryX=0.25;entryY=1;entryDx=0;entryDy=0;exitX=0.5;exitY=0;exitDx=0;exitDy=0;" edge="1" parent="WIyWlLk6GJQsqaUBKTNV-1" source="hUJC9Ihexo7JorO5PDd7-11" target="hUJC9Ihexo7JorO5PDd7-23">
          <mxGeometry width="160" relative="1" as="geometry">
            <mxPoint x="700" y="1270" as="sourcePoint" />
            <mxPoint x="860" y="1270" as="targetPoint" />
          </mxGeometry>
        </mxCell>
        <mxCell id="hUJC9Ihexo7JorO5PDd7-25" value="" style="endArrow=block;dashed=1;endFill=0;endSize=12;html=1;entryX=0.458;entryY=0.993;entryDx=0;entryDy=0;exitX=0.5;exitY=0;exitDx=0;exitDy=0;entryPerimeter=0;" edge="1" parent="WIyWlLk6GJQsqaUBKTNV-1" source="hUJC9Ihexo7JorO5PDd7-15" target="hUJC9Ihexo7JorO5PDd7-23">
          <mxGeometry width="160" relative="1" as="geometry">
            <mxPoint x="740" y="1290" as="sourcePoint" />
            <mxPoint x="935" y="1230" as="targetPoint" />
          </mxGeometry>
        </mxCell>
        <mxCell id="hUJC9Ihexo7JorO5PDd7-26" value="" style="endArrow=block;dashed=1;endFill=0;endSize=12;html=1;exitX=0.5;exitY=0.1;exitDx=0;exitDy=0;entryX=0.75;entryY=1;entryDx=0;entryDy=0;exitPerimeter=0;" edge="1" parent="WIyWlLk6GJQsqaUBKTNV-1" source="hUJC9Ihexo7JorO5PDd7-46" target="hUJC9Ihexo7JorO5PDd7-23">
          <mxGeometry width="160" relative="1" as="geometry">
            <mxPoint x="1070" y="1280" as="sourcePoint" />
            <mxPoint x="920" y="1220" as="targetPoint" />
          </mxGeometry>
        </mxCell>
        <mxCell id="hUJC9Ihexo7JorO5PDd7-27" value="Quack" style="swimlane;fontStyle=1;align=center;verticalAlign=top;childLayout=stackLayout;horizontal=1;startSize=26;horizontalStack=0;resizeParent=1;resizeParentMax=0;resizeLast=0;collapsible=1;marginBottom=0;" vertex="1" parent="WIyWlLk6GJQsqaUBKTNV-1">
          <mxGeometry x="660" y="1634" width="160" height="86" as="geometry" />
        </mxCell>
        <mxCell id="hUJC9Ihexo7JorO5PDd7-30" value="+ quack(){&#xa;  // impl. of duck quack&#xa;}" style="text;strokeColor=none;fillColor=none;align=left;verticalAlign=top;spacingLeft=4;spacingRight=4;overflow=hidden;rotatable=0;points=[[0,0.5],[1,0.5]];portConstraint=eastwest;" vertex="1" parent="hUJC9Ihexo7JorO5PDd7-27">
          <mxGeometry y="26" width="160" height="60" as="geometry" />
        </mxCell>
        <mxCell id="hUJC9Ihexo7JorO5PDd7-31" value="Squeek" style="swimlane;fontStyle=1;align=center;verticalAlign=top;childLayout=stackLayout;horizontal=1;startSize=26;horizontalStack=0;resizeParent=1;resizeParentMax=0;resizeLast=0;collapsible=1;marginBottom=0;" vertex="1" parent="WIyWlLk6GJQsqaUBKTNV-1">
          <mxGeometry x="830" y="1634" width="160" height="86" as="geometry" />
        </mxCell>
        <mxCell id="hUJC9Ihexo7JorO5PDd7-34" value="+ quack(){&#xa;  // impl. of squack&#xa;}" style="text;strokeColor=none;fillColor=none;align=left;verticalAlign=top;spacingLeft=4;spacingRight=4;overflow=hidden;rotatable=0;points=[[0,0.5],[1,0.5]];portConstraint=eastwest;" vertex="1" parent="hUJC9Ihexo7JorO5PDd7-31">
          <mxGeometry y="26" width="160" height="60" as="geometry" />
        </mxCell>
        <mxCell id="hUJC9Ihexo7JorO5PDd7-35" value="MuteQuck" style="swimlane;fontStyle=1;align=center;verticalAlign=top;childLayout=stackLayout;horizontal=1;startSize=26;horizontalStack=0;resizeParent=1;resizeParentMax=0;resizeLast=0;collapsible=1;marginBottom=0;" vertex="1" parent="WIyWlLk6GJQsqaUBKTNV-1">
          <mxGeometry x="1000" y="1634" width="160" height="86" as="geometry" />
        </mxCell>
        <mxCell id="hUJC9Ihexo7JorO5PDd7-38" value="+ quack(){&#xa;  // do nothing, can&#39;t quack&#xa;}" style="text;strokeColor=none;fillColor=none;align=left;verticalAlign=top;spacingLeft=4;spacingRight=4;overflow=hidden;rotatable=0;points=[[0,0.5],[1,0.5]];portConstraint=eastwest;" vertex="1" parent="hUJC9Ihexo7JorO5PDd7-35">
          <mxGeometry y="26" width="160" height="60" as="geometry" />
        </mxCell>
        <mxCell id="hUJC9Ihexo7JorO5PDd7-39" value="&lt;p style=&quot;margin: 0px ; margin-top: 4px ; text-align: center&quot;&gt;&lt;i&gt;&amp;lt;&amp;lt;Interface&amp;gt;&amp;gt;&lt;/i&gt;&lt;br&gt;&lt;b&gt;QuackBehavior&lt;/b&gt;&lt;/p&gt;&lt;hr size=&quot;1&quot;&gt;&lt;p style=&quot;margin: 0px ; margin-left: 4px&quot;&gt;&lt;span style=&quot;color: rgba(0 , 0 , 0 , 0) ; font-family: monospace ; font-size: 0px&quot;&gt;%3CmxGraphModel%3E%3Croot%3E%3CmxCell%20id%3D%220%22%2F%3E%3CmxCell%20id%3D%221%22%20parent%3D%220%22%2F%3E%3CmxCell%20id%3D%222%22%20value%3D%22%22%20style%3D%22endArrow%3Dblock%3Bdashed%3D1%3BendFill%3D0%3BendSize%3D12%3Bhtml%3D1%3BentryX%3D0.5%3BentryY%3D1%3BentryDx%3D0%3BentryDy%3D0%3BexitX%3D0.5%3BexitY%3D0%3BexitDx%3D0%3BexitDy%3D0%3B%22%20edge%3D%221%22%20parent%3D%221%22%3E%3CmxGeometry%20width%3D%22160%22%20relative%3D%221%22%20as%3D%22geometry%22%3E%3CmxPoint%20x%3D%22610%22%20y%3D%22380%22%20as%3D%22sourcePoint%22%2F%3E%3CmxPoint%20x%3D%22635%22%20y%3D%22320%22%20as%3D%22targetPoint%22%2F%3E%3C%2FmxGeometry%3E%3C%2FmxCell%3E%3C%2Froot%3E%3C%2FmxGraphModel%3&lt;/span&gt;&lt;span&gt;+ quack()&lt;/span&gt;&lt;/p&gt;" style="verticalAlign=top;align=left;overflow=fill;fontSize=12;fontFamily=Helvetica;html=1;" vertex="1" parent="WIyWlLk6GJQsqaUBKTNV-1">
          <mxGeometry x="840" y="1464" width="190" height="76" as="geometry" />
        </mxCell>
        <mxCell id="hUJC9Ihexo7JorO5PDd7-40" value="" style="endArrow=block;dashed=1;endFill=0;endSize=12;html=1;entryX=0.25;entryY=1;entryDx=0;entryDy=0;exitX=0.5;exitY=0;exitDx=0;exitDy=0;" edge="1" parent="WIyWlLk6GJQsqaUBKTNV-1" source="hUJC9Ihexo7JorO5PDd7-27" target="hUJC9Ihexo7JorO5PDd7-39">
          <mxGeometry width="160" relative="1" as="geometry">
            <mxPoint x="710" y="1624" as="sourcePoint" />
            <mxPoint x="870" y="1624" as="targetPoint" />
          </mxGeometry>
        </mxCell>
        <mxCell id="hUJC9Ihexo7JorO5PDd7-41" value="" style="endArrow=block;dashed=1;endFill=0;endSize=12;html=1;entryX=0.458;entryY=0.993;entryDx=0;entryDy=0;exitX=0.5;exitY=0;exitDx=0;exitDy=0;entryPerimeter=0;" edge="1" parent="WIyWlLk6GJQsqaUBKTNV-1" source="hUJC9Ihexo7JorO5PDd7-31" target="hUJC9Ihexo7JorO5PDd7-39">
          <mxGeometry width="160" relative="1" as="geometry">
            <mxPoint x="750" y="1644" as="sourcePoint" />
            <mxPoint x="945" y="1584" as="targetPoint" />
          </mxGeometry>
        </mxCell>
        <mxCell id="hUJC9Ihexo7JorO5PDd7-42" value="" style="endArrow=block;dashed=1;endFill=0;endSize=12;html=1;exitX=0.5;exitY=0;exitDx=0;exitDy=0;entryX=0.75;entryY=1;entryDx=0;entryDy=0;" edge="1" parent="WIyWlLk6GJQsqaUBKTNV-1" source="hUJC9Ihexo7JorO5PDd7-35" target="hUJC9Ihexo7JorO5PDd7-39">
          <mxGeometry width="160" relative="1" as="geometry">
            <mxPoint x="920" y="1644" as="sourcePoint" />
            <mxPoint x="930" y="1574" as="targetPoint" />
          </mxGeometry>
        </mxCell>
        <mxCell id="hUJC9Ihexo7JorO5PDd7-44" value="" style="endArrow=open;endFill=1;endSize=12;html=1;exitX=1;exitY=0.25;exitDx=0;exitDy=0;entryX=0.011;entryY=0.33;entryDx=0;entryDy=0;entryPerimeter=0;" edge="1" parent="WIyWlLk6GJQsqaUBKTNV-1" source="hUJC9Ihexo7JorO5PDd7-2" target="hUJC9Ihexo7JorO5PDd7-23">
          <mxGeometry width="160" relative="1" as="geometry">
            <mxPoint x="490" y="1410" as="sourcePoint" />
            <mxPoint x="650" y="1410" as="targetPoint" />
          </mxGeometry>
        </mxCell>
        <mxCell id="hUJC9Ihexo7JorO5PDd7-45" value="flyBehavior" style="text;html=1;align=center;verticalAlign=middle;resizable=0;points=[];autosize=1;strokeColor=none;" vertex="1" parent="WIyWlLk6GJQsqaUBKTNV-1">
          <mxGeometry x="745" y="1120" width="70" height="20" as="geometry" />
        </mxCell>
        <mxCell id="hUJC9Ihexo7JorO5PDd7-46" value="Other types of flying" style="text;html=1;align=center;verticalAlign=middle;resizable=0;points=[];autosize=1;strokeColor=none;" vertex="1" parent="WIyWlLk6GJQsqaUBKTNV-1">
          <mxGeometry x="1000" y="1285" width="120" height="20" as="geometry" />
        </mxCell>
        <mxCell id="hUJC9Ihexo7JorO5PDd7-49" value="" style="endArrow=open;endFill=1;endSize=12;html=1;exitX=1;exitY=0.5;exitDx=0;exitDy=0;entryX=0;entryY=0.5;entryDx=0;entryDy=0;" edge="1" parent="WIyWlLk6GJQsqaUBKTNV-1" source="hUJC9Ihexo7JorO5PDd7-2" target="hUJC9Ihexo7JorO5PDd7-39">
          <mxGeometry width="160" relative="1" as="geometry">
            <mxPoint x="407.91" y="1434.5" as="sourcePoint" />
            <mxPoint x="859.9999999999999" y="1330" as="targetPoint" />
          </mxGeometry>
        </mxCell>
        <mxCell id="hUJC9Ihexo7JorO5PDd7-50" value="quackBehavior" style="text;html=1;align=center;verticalAlign=middle;resizable=0;points=[];autosize=1;strokeColor=none;" vertex="1" parent="WIyWlLk6GJQsqaUBKTNV-1">
          <mxGeometry x="704" y="1490" width="90" height="20" as="geometry" />
        </mxCell>
        <mxCell id="hUJC9Ihexo7JorO5PDd7-51" value="" style="endArrow=block;dashed=1;endFill=0;endSize=12;html=1;entryX=1;entryY=0.75;entryDx=0;entryDy=0;exitX=0.496;exitY=0;exitDx=0;exitDy=0;exitPerimeter=0;" edge="1" parent="WIyWlLk6GJQsqaUBKTNV-1" source="hUJC9Ihexo7JorO5PDd7-52" target="hUJC9Ihexo7JorO5PDd7-39">
          <mxGeometry width="160" relative="1" as="geometry">
            <mxPoint x="1210" y="1585" as="sourcePoint" />
            <mxPoint x="1130" y="1480" as="targetPoint" />
          </mxGeometry>
        </mxCell>
        <mxCell id="hUJC9Ihexo7JorO5PDd7-52" value="Other types of quacking" style="text;html=1;align=center;verticalAlign=middle;resizable=0;points=[];autosize=1;strokeColor=none;" vertex="1" parent="WIyWlLk6GJQsqaUBKTNV-1">
          <mxGeometry x="1147.5" y="1575" width="140" height="20" as="geometry" />
        </mxCell>
      </root>
    </mxGraphModel>
  </diagram>
</mxfile>
